<svg width="188" height="199" viewBox="0 0 188 199" fill="none" xmlns="http://www.w3.org/2000/svg">
<path d="M0.933327 1.26668C0.533327 1.93334 0.399994 23.9333 0.399994 50.3333L0.666661 98.3333L20.4 98.7333L40 99.1333V115.533C40 135.667 38.1333 145.533 32.8 153.4C26.8 162.2 23.0667 164.467 12.9333 165.267L4.26666 166.067L3.46666 172.2C3.06666 175.533 2.26666 182.6 1.86666 187.8L0.933327 197.267L9.73333 198.2C32.6667 200.733 54.5333 188.6 64.6667 167.8C72.5333 151.667 72.4 152.467 72.9333 73.2667L73.4667 0.333343H37.4667C17.7333 0.333343 1.19999 0.733343 0.933327 1.26668Z" fill="white"/>
<path d="M116 49.6667V98.8667L135.733 99.2667L155.333 99.6667L154.933 117.533C154.667 136.2 153.467 143.133 149.2 151C143.733 161.267 136.667 165.667 125.333 165.667H119.067L117.6 179.933C116.667 187.933 116 195 116 195.8C116 198.067 132.667 199.4 141.067 197.8C163.067 193.4 178.8 177 185.467 151.267C187.867 141.933 188 136.067 188 70.7333V0.333327H152H116V49.6667Z" fill="white"/>
</svg>
