<?xml version="1.0" standalone="no"?>
<!DOCTYPE svg PUBLIC "-//W3C//DTD SVG 20010904//EN"
 "http://www.w3.org/TR/2001/REC-SVG-20010904/DTD/svg10.dtd">
<svg version="1.0" xmlns="http://www.w3.org/2000/svg"
 width="222.000000pt" height="206.000000pt" viewBox="0 0 222.000000 206.000000"
 preserveAspectRatio="xMidYMid meet">

<g transform="translate(0.000000,206.000000) scale(0.100000,-0.100000)"
fill="#000000" stroke="none">
<path d="M397 1803 c-3 -5 -4 -170 -4 -368 l2 -360 148 -3 147 -3 0 -123 c0
-151 -14 -225 -54 -284 -45 -66 -73 -83 -149 -89 l-65 -6 -6 -46 c-3 -25 -9
-78 -12 -117 l-7 -71 66 -7 c172 -19 336 72 412 228 59 121 58 115 62 709 l4
547 -270 0 c-148 0 -272 -3 -274 -7z"/>
<path d="M1260 1440 l0 -369 148 -3 147 -3 -3 -134 c-2 -140 -11 -192 -43
-251 -41 -77 -94 -110 -179 -110 l-47 0 -11 -107 c-7 -60 -12 -113 -12 -119 0
-17 125 -27 188 -15 165 33 283 156 333 349 18 70 19 114 19 604 l0 528 -270
0 -270 0 0 -370z"/>
</g>
</svg>
